<?xml version="1.0" encoding="UTF-8" standalone="no"?>
<svg
   xmlns:dc="http://purl.org/dc/elements/1.1/"
   xmlns:cc="http://creativecommons.org/ns#"
   xmlns:rdf="http://www.w3.org/1999/02/22-rdf-syntax-ns#"
   xmlns:svg="http://www.w3.org/2000/svg"
   xmlns="http://www.w3.org/2000/svg"
   viewBox="0 0 973.28748 489.5625"
   height="489.5625"
   width="973.28748"
   xml:space="preserve"
   version="1.1"
   id="svg2"><metadata
     id="metadata8"><rdf:RDF><cc:Work
         rdf:about=""><dc:format>image/svg+xml</dc:format><dc:type
           rdf:resource="http://purl.org/dc/dcmitype/StillImage" /></cc:Work></rdf:RDF></metadata><defs
     id="defs6" /><g
     transform="matrix(1.25,0,0,-1.25,0,489.5625)"
     id="g10"><g
       transform="scale(0.1,0.1)"
       id="g12"><path
         id="path14"
         style="fill:#605d5d;fill-opacity:1;fill-rule:evenodd;stroke:none"
         d="M 1538.96,1378.5 254.297,1933.09 25.7188,1270.82 444.988,1558.51 1538.96,1378.5" /><path
         id="path16"
         style="fill:#605d5d;fill-opacity:1;fill-rule:nonzero;stroke:none"
         d="M 269.57,1898.49 75.4688,1336.16 430.43,1579.72 c 5.476,3.74 12.207,5.26 18.738,4.17 L 1336.55,1437.87 269.57,1898.49 Z M 25.7188,1245.1 c -5.5,0 -10.9883,1.76 -15.586,5.26 -8.82811,6.72 -12.34374,18.36 -8.72655,28.85 L 229.988,1941.48 c 2.336,6.76 7.383,12.25 13.926,15.14 6.559,2.88 14.004,2.93 20.582,0.07 L 1549.16,1402.11 c 11.93,-5.15 18.13,-18.39 14.48,-30.84 -3.67,-12.47 -16.01,-20.14 -28.86,-18.15 L 451.012,1531.46 40.2734,1249.61 c -4.3984,-3.01 -9.4843,-4.51 -14.5546,-4.51" /><path
         id="path18"
         style="fill:#1e3058;fill-opacity:1;fill-rule:evenodd;stroke:none"
         d="m 5887.51,2935.21 c 0,29.18 0,50.02 20.83,58.35 29.16,12.51 49.99,16.67 83.32,25.01 l 0,4.16 c -604.06,0 -604.06,0 -604.06,0 -4.16,0 -4.16,-4.16 -4.16,-4.16 l 4.16,0 c 33.33,-8.34 50,-12.5 79.16,-25.01 20.83,-8.33 20.83,-29.17 20.83,-58.35 0,-545.96 0,-545.96 0,-545.96 0,-125.03 -74.99,-220.88 -233.29,-220.88 -158.31,0 -237.46,95.85 -237.46,220.88 0,545.96 0,545.96 0,545.96 0,29.18 4.17,50.02 25,58.35 29.16,12.51 45.82,16.67 79.15,25.01 l 4.16,0 c 0,0 0,4.16 -4.16,4.16 -570.73,0 -570.73,0 -570.73,0 l 0,-4.16 c 20.83,-4.17 33.33,-12.5 49.99,-20.84 16.66,-16.67 20.83,-33.34 20.83,-62.52 0,-537.62 0,-537.62 0,-537.62 0,-258.4 158.3,-479.28 633.22,-479.28 474.91,0 633.21,220.88 633.21,479.28 l 0,537.62" /><path
         id="path20"
         style="fill:#1e3058;fill-opacity:1;fill-rule:evenodd;stroke:none"
         d="m 2195.28,2818.58 c 183.28,0 183.28,0 183.28,0 120.8,0 187.45,-16.66 187.45,-116.66 0,-62.49 -41.65,-120.82 -183.28,-120.82 -187.45,0 -187.45,0 -187.45,0 l 0,237.48 z m 0,-404.14 c 158.29,0 158.29,0 158.29,0 104.14,0 237.43,0 237.43,-133.32 0,-99.99 -95.8,-133.32 -220.77,-133.32 -174.95,0 -174.95,0 -174.95,0 l 0,266.64 z m -383.22,520.8 c 0,-908.27 0,-908.27 0,-908.27 0,-29.16 0,-49.99 -24.99,-58.33 -29.16,-12.49 -45.82,-16.66 -79.14,-24.99 l 0,0 c 0,0 -4.17,-4.17 0,-4.17 4.16,0 812.26,0 812.26,0 345.73,0 487.36,120.82 487.36,316.64 0,141.66 -70.81,229.15 -216.6,262.48 l 0,0 c 91.64,25 174.94,87.5 174.94,237.49 0,199.98 -149.95,266.64 -474.86,266.64 -783.1,0 -783.1,0 -783.1,0 l 0,-4.16 c 33.32,-8.34 49.98,-12.5 79.14,-25 24.99,-8.33 24.99,-29.16 24.99,-58.33" /><path
         id="path22"
         style="fill:#1e3058;fill-opacity:1;fill-rule:evenodd;stroke:none"
         d="m 3940.78,3018.57 c 20.83,0 54.16,-4.17 49.99,-45.83 0,-37.5 -212.49,-308.31 -237.49,-349.98 -75,104.16 -237.49,308.31 -241.66,349.98 0,33.33 29.17,45.83 58.33,45.83 l 0,0 c 4.17,0 4.17,4.16 0,4.16 -587.48,0 -587.48,0 -587.48,0 -4.17,0 -4.17,-4.16 0,-4.16 l 0,0 c 25,-4.17 37.5,-8.34 66.66,-20.83 4.17,0 12.5,-4.17 12.5,-8.33 20.84,-12.5 33.34,-29.17 58.34,-62.5 412.48,-554.13 412.48,-554.13 412.48,-554.13 0,-345.81 0,-345.81 0,-345.81 0,-29.16 0,-49.99 -20.83,-58.33 -29.16,-12.49 -50,-16.66 -83.33,-24.99 l 0,-4.17 c 637.48,0 637.48,0 637.48,0 4.17,0 4.17,4.17 4.17,4.17 -4.17,0 -4.17,0 -4.17,0 -33.33,8.33 -49.99,12.5 -79.16,24.99 -20.83,8.34 -25,29.17 -25,58.33 0,345.81 0,345.81 0,345.81 416.66,554.13 416.66,554.13 416.66,554.13 20.83,33.33 37.49,50 54.16,62.5 4.17,4.16 12.5,8.33 16.67,8.33 16.66,12.49 25,16.66 45.83,20.83 l 0,0 c 4.17,0 4.17,4.16 0,4.16 -554.15,0 -554.15,0 -554.15,0 l 0,-4.16" /><path
         id="path24"
         style="fill:#605d5d;fill-opacity:1;fill-rule:nonzero;stroke:none"
         d="m 1831.13,1602.17 8.22,-4.12 205.83,-251.09 205.82,251.09 8.22,4.12 69.99,0 4.12,-4.12 0,-568.05 -4.12,-4.12 -74.09,0 -4.12,4.12 0,448.67 -201.72,-246.97 -8.22,0 -201.71,246.97 0,-448.67 -4.1,-4.12 -74.11,0 -4.1,4.12 0,568.05 4.1,4.12 69.99,0" /><path
         id="path26"
         style="fill:#605d5d;fill-opacity:1;fill-rule:nonzero;stroke:none"
         d="m 2584.15,1244.06 189.36,0 -94.69,242.85 -94.67,-242.85 z m 131.72,358.11 4.12,-4.12 230.52,-568.05 -4.12,-4.12 -82.33,0 -4.12,4.12 -53.5,131.71 -255.23,0 -53.51,-131.71 -4.12,-4.12 -82.31,0 -4.12,4.12 230.51,568.05 4.12,4.12 74.09,0" /><path
         id="path28"
         style="fill:#605d5d;fill-opacity:1;fill-rule:nonzero;stroke:none"
         d="m 3481.32,1462.19 c -53.52,49.43 -131.73,65.87 -201.7,65.87 -127.62,0 -218.17,-94.67 -218.17,-214.05 0,-123.47 94.67,-214.06 222.27,-214.06 41.18,0 86.45,8.24 127.63,28.84 l 0,139.94 -111.15,0 -4.12,4.12 0,74.11 4.12,4.12 189.36,0 4.09,-4.12 0,-267.56 c -61.73,-45.28 -135.82,-65.88 -209.93,-65.88 -177,0 -316.96,131.71 -316.96,300.49 0,164.66 135.84,300.52 312.86,300.52 78.21,0 152.3,-12.36 205.82,-53.51 l 0,-94.71 -4.12,-4.12" /><path
         id="path30"
         style="fill:#605d5d;fill-opacity:1;fill-rule:nonzero;stroke:none"
         d="m 3695.14,1602.17 4.1,-4.12 0,-568.05 -4.1,-4.12 -74.11,0 -4.12,4.12 0,568.05 4.12,4.12 74.11,0" /><path
         id="path32"
         style="fill:#605d5d;fill-opacity:1;fill-rule:nonzero;stroke:none"
         d="m 4304.31,1453.99 c -53.54,45.27 -123.53,74.07 -193.5,74.07 -115.26,0 -209.93,-94.67 -209.93,-214.05 0,-119.35 94.67,-214.06 209.93,-214.06 69.97,0 139.96,28.84 193.5,74.11 l 4.08,-4.12 0,-94.66 c -53.52,-38.69 -119.37,-61.76 -197.58,-61.76 -168.78,0 -304.62,135.83 -304.62,300.49 0,164.66 135.84,300.52 304.62,300.52 78.21,0 144.06,-23.07 197.58,-61.75 l 0,-94.67 -4.08,-4.12" /><path
         id="path34"
         style="fill:#605d5d;fill-opacity:1;fill-rule:nonzero;stroke:none"
         d="m 4880.35,1453.99 c -53.51,45.27 -123.5,74.07 -193.45,74.07 -115.27,0 -209.94,-94.67 -209.94,-214.05 0,-119.35 94.67,-214.06 209.94,-214.06 69.95,0 139.94,28.84 193.45,74.11 l 4.12,-4.12 0,-94.66 c -53.51,-38.69 -119.38,-61.76 -197.57,-61.76 -168.78,0 -304.65,135.83 -304.65,300.49 0,164.66 135.87,300.52 304.65,300.52 78.19,0 144.06,-23.07 197.57,-61.75 l 0,-94.67 -4.12,-4.12" /><path
         id="path36"
         style="fill:#605d5d;fill-opacity:1;fill-rule:nonzero;stroke:none"
         d="m 5292.48,1602.17 3.29,-3.29 0,-490.69 268.39,0 3.3,-4.12 0,-74.89 -3.3,-3.3 -347.4,0 -3.3,3.3 0,569.7 3.3,3.29 75.72,0" /><path
         id="path38"
         style="fill:#605d5d;fill-opacity:1;fill-rule:nonzero;stroke:none"
         d="m 5777.27,1244.06 189.34,0 -94.67,242.85 -94.67,-242.85 z m 131.7,358.11 4.12,-4.12 230.54,-568.05 -4.12,-4.12 -82.35,0 -4.12,4.12 -53.48,131.71 -255.25,0 -53.51,-131.71 -4.12,-4.12 -82.31,0 -4.12,4.12 230.53,568.05 4.12,4.12 74.07,0" /><path
         id="path40"
         style="fill:#605d5d;fill-opacity:1;fill-rule:nonzero;stroke:none"
         d="m 6299.8,1108.19 119.39,0 c 61.75,0 98.78,37.04 98.78,94.67 0,53.51 -37.03,94.71 -98.78,94.71 l -119.39,0 0,-189.38 z m 0,271.69 57.63,0 c 61.76,0 90.59,20.6 90.59,74.11 0,45.27 -28.83,65.83 -90.59,65.83 l -57.63,0 0,-139.94 z m 57.63,222.29 c 115.27,0 185.26,-57.63 185.26,-148.18 0,-45.32 -20.6,-74.11 -49.39,-94.71 82.31,-28.8 119.34,-86.43 119.34,-156.42 0,-98.79 -82.31,-176.98 -193.45,-176.98 l -197.58,0 -4.12,4.12 0,568.05 4.12,4.12 135.82,0" /><path
         id="path42"
         style="fill:#605d5d;fill-opacity:1;fill-rule:evenodd;stroke:none"
         d="m 6247.37,2537.97 1284.67,-554.59 228.57,662.26 -419.27,-287.69 -1093.97,180.02" /><path
         id="path44"
         style="fill:#605d5d;fill-opacity:1;fill-rule:nonzero;stroke:none"
         d="m 7516.76,2017.97 194.1,562.34 -354.96,-243.57 c -5.47,-3.74 -12.21,-5.26 -18.74,-4.16 l -887.38,146.01 1066.98,-460.62 z m 243.85,653.39 c 5.5,0 10.99,-1.76 15.59,-5.26 8.83,-6.72 12.34,-18.36 8.72,-28.84 l -228.58,-662.27 c -2.33,-6.77 -7.38,-12.26 -13.92,-15.14 -6.56,-2.88 -14.01,-2.93 -20.59,-0.08 l -1284.66,554.59 c -11.93,5.15 -18.13,18.38 -14.48,30.84 3.67,12.47 16.01,20.14 28.86,18.14 L 7335.32,2385 l 410.74,281.85 c 4.39,3.02 9.48,4.51 14.55,4.51" /><path
         id="path46"
         style="fill:#aeadaf;fill-opacity:1;fill-rule:nonzero;stroke:none"
         d="m 7382.58,2709.92 c 0,0 -356.59,620.4 -1480.98,923.88 -1124.38,303.48 -2572.64,443.83 -4085.39,0 C 303.453,3189.97 253.965,2408.73 253.965,2408.73 c 0,0 11.609,-42.15 51.004,-11.5 0,0 130.398,732.86 1573.201,1126.67 1497.27,408.67 3160.3,182.28 3928.44,-100.61 898.3,-330.84 1184.55,-795.86 1184.55,-795.86 l 281.63,-101.68 109.79,184.17" /><path
         id="path48"
         style="fill:#aeadaf;fill-opacity:1;fill-rule:nonzero;stroke:none"
         d="m 403.754,1206.55 c 0,0 356.594,-620.402 1480.976,-923.878 1124.38,-303.4923 2572.64,-443.832 4085.4,0 1512.75,443.828 1562.24,1225.068 1562.24,1225.068 0,0 -11.61,42.15 -51.01,11.5 0,0 -130.4,-732.869 -1573.19,-1126.681 C 4410.89,-16.1094 2747.86,210.281 1979.73,493.18 1081.42,824.012 795.172,1289.04 795.172,1289.04 L 513.547,1390.72 403.754,1206.55" /></g></g></svg>