<?xml version="1.0" encoding="UTF-8" standalone="no"?>
<svg
   xmlns:dc="http://purl.org/dc/elements/1.1/"
   xmlns:cc="http://creativecommons.org/ns#"
   xmlns:rdf="http://www.w3.org/1999/02/22-rdf-syntax-ns#"
   xmlns:svg="http://www.w3.org/2000/svg"
   xmlns="http://www.w3.org/2000/svg"
   xmlns:sodipodi="http://sodipodi.sourceforge.net/DTD/sodipodi-0.dtd"
   xmlns:inkscape="http://www.inkscape.org/namespaces/inkscape"
   viewBox="0 0 107.93607 123.7"
   version="1.1"
   id="svg4"
   sodipodi:docname="cpp_plain.svg"
   width="107.93607"
   height="123.7"
   inkscape:version="1.0.2 (e86c870879, 2021-01-15, custom)">
  <metadata
     id="metadata10">
    <rdf:RDF>
      <cc:Work
         rdf:about="">
        <dc:format>image/svg+xml</dc:format>
        <dc:type
           rdf:resource="http://purl.org/dc/dcmitype/StillImage" />
      </cc:Work>
    </rdf:RDF>
  </metadata>
  <defs
     id="defs8" />
  <sodipodi:namedview
     pagecolor="#ffffff"
     bordercolor="#666666"
     borderopacity="1"
     objecttolerance="10"
     gridtolerance="10"
     guidetolerance="10"
     inkscape:pageopacity="0"
     inkscape:pageshadow="2"
     inkscape:window-width="2560"
     inkscape:window-height="1440"
     id="namedview6"
     showgrid="false"
     inkscape:zoom="6.9140625"
     inkscape:cx="54.361582"
     inkscape:cy="61.8"
     inkscape:window-x="1920"
     inkscape:window-y="0"
     inkscape:window-maximized="1"
     inkscape:current-layer="svg4" />
  <path
     fill="#9c033a"
     d="m 107.5,31.3 0.3,-0.2 C 107.2,30 106.3,29 105.4,28.5 L 57.1,0.7 C 56.3,0.2 55.2,0 54,0 52.8,0 51.7,0.3 50.9,0.7 L 2.9,28.6 C 1.2,29.6 0,32.1 0,34 v 55.7 c 0,1.1 0.2,2.3 0.9,3.4 l -0.2,0.1 c 0.5,0.8 1.2,1.5 1.9,1.9 L 50.8,123 c 0.8,0.5 1.9,0.7 3.1,0.7 1.2,0 2.3,-0.3 3.1,-0.7 l 48,-27.9 c 1.7,-1 2.9,-3.5 2.9,-5.4 V 33.9 c 0.1,-0.8 0,-1.7 -0.4,-2.6 z M 72,63.8 v -4 h 5 v -5 h 5 v 5 h 5 v 4 h -5 v 5 h -5 v -5 z m 3.3,-14 C 71.1,42.3 63.1,37.3 54,37.3 c -13.5,0 -24.5,11 -24.5,24.5 0,13.5 11,24.5 24.5,24.5 9.1,0 17.1,-5 21.3,-12.4 l 12.9,7.6 C 81.4,93.3 68.6,101.3 54,101.3 32.2,101.3 14.5,83.6 14.5,61.8 14.5,40 32.2,22.3 54,22.3 c 14.7,0 27.5,8.1 34.3,20 z m 29.7,14 h -5 v 5 h -4 v -5 h -6 v -4 h 6 v -5 h 4 v 5 h 5 z"
     id="path2" />
</svg>
