<?xml version="1.0" encoding="UTF-8" standalone="no"?>
<svg
   xmlns:dc="http://purl.org/dc/elements/1.1/"
   xmlns:cc="http://creativecommons.org/ns#"
   xmlns:rdf="http://www.w3.org/1999/02/22-rdf-syntax-ns#"
   xmlns:svg="http://www.w3.org/2000/svg"
   xmlns="http://www.w3.org/2000/svg"
   xmlns:sodipodi="http://sodipodi.sourceforge.net/DTD/sodipodi-0.dtd"
   xmlns:inkscape="http://www.inkscape.org/namespaces/inkscape"
   viewBox="0 0 102.37781 103.50677"
   version="1.1"
   id="svg23"
   sodipodi:docname="python.svg"
   width="102.37781"
   height="103.50677"
   inkscape:version="1.0.2 (e86c870879, 2021-01-15, custom)">
  <metadata
     id="metadata29">
    <rdf:RDF>
      <cc:Work
         rdf:about="">
        <dc:format>image/svg+xml</dc:format>
        <dc:type
           rdf:resource="http://purl.org/dc/dcmitype/StillImage" />
      </cc:Work>
    </rdf:RDF>
  </metadata>
  <defs
     id="defs27" />
  <sodipodi:namedview
     pagecolor="#ffffff"
     bordercolor="#666666"
     borderopacity="1"
     objecttolerance="10"
     gridtolerance="10"
     guidetolerance="10"
     inkscape:pageopacity="0"
     inkscape:pageshadow="2"
     inkscape:window-width="2560"
     inkscape:window-height="1440"
     id="namedview25"
     showgrid="false"
     inkscape:zoom="6.9140625"
     inkscape:cx="51.549284"
     inkscape:cy="62.012795"
     inkscape:window-x="1920"
     inkscape:window-y="0"
     inkscape:window-maximized="1"
     inkscape:current-layer="svg23" />
  <linearGradient
     id="a"
     gradientUnits="userSpaceOnUse"
     x1="70.251999"
     y1="1237.476"
     x2="170.659"
     y2="1151.089"
     gradientTransform="matrix(0.563,0,0,-0.568,-42.027298,705.8298)">
    <stop
       offset="0"
       stop-color="#5A9FD4"
       id="stop2" />
    <stop
       offset="1"
       stop-color="#306998"
       id="stop4" />
  </linearGradient>
  <path
     fill="url(#a)"
     d="m 50.578702,7.9534461e-4 c -4.222,0.0199999954 -8.252,0.37899999539 -11.8,1.00699995539 -10.45,1.846 -12.346,5.71 -12.346,12.8369997 v 9.411 h 24.693 v 3.137 h -33.961 c -7.1759998,0 -13.4599998,4.313 -15.4259998,12.521 -2.26800003,9.405 -2.36800003,15.275 0,25.096 1.755,7.311 5.947,12.519 13.1239998,12.519 h 8.491 v -11.282 c 0,-8.151 7.051,-15.34 15.426,-15.34 h 24.665 c 6.866,0 12.346,-5.654 12.346,-12.548 v -23.513 c 0,-6.6929997 -5.646,-11.7199997 -12.346,-12.8369997 -4.244,-0.70599996 -8.645,-1.02699996 -12.866,-1.00799995539 z M 37.224702,7.5697953 c 2.55,0 4.634,2.117 4.634,4.7209997 0,2.593 -2.083,4.69 -4.634,4.69 -2.56,0 -4.633,-2.097 -4.633,-4.69 -10e-4,-2.6039997 2.073,-4.7209997 4.633,-4.7209997 z"
     id="path7"
     style="fill:url(#a)" />
  <linearGradient
     id="b"
     gradientUnits="userSpaceOnUse"
     x1="209.474"
     y1="1098.811"
     x2="173.62"
     y2="1149.537"
     gradientTransform="matrix(0.563,0,0,-0.568,-42.027298,705.8298)">
    <stop
       offset="0"
       stop-color="#FFD43B"
       id="stop9" />
    <stop
       offset="1"
       stop-color="#FFE873"
       id="stop11" />
  </linearGradient>
  <path
     fill="url(#b)"
     d="m 78.869702,26.392795 v 10.966 c 0,8.5 -7.208,15.655 -15.426,15.655 h -24.665 c -6.756,0 -12.346,5.783 -12.346,12.549 v 23.515 c 0,6.691 5.818,10.628 12.346,12.547005 7.816,2.297 15.312,2.713 24.665,0 6.216,-1.801005 12.346,-5.423005 12.346,-12.547005 v -9.412 h -24.664 v -3.138 h 37.012 c 7.176,0 9.852,-5.005 12.347998,-12.519 2.578,-7.735 2.467,-15.174 0,-25.096 -1.773998,-7.145 -5.160998,-12.521 -12.347998,-12.521 h -9.268 z m -13.873,59.547 c 2.561,0 4.634,2.097 4.634,4.692 0,2.602 -2.074,4.719 -4.634,4.719 -2.55,0 -4.633,-2.117 -4.633,-4.719 0,-2.595 2.083,-4.692 4.633,-4.692 z"
     id="path14"
     style="fill:url(#b)" />
  <radialGradient
     id="c"
     cx="1825.678"
     cy="444.45001"
     r="26.743"
     gradientTransform="matrix(0,-0.24,-1.055,0,532.979,557.576)"
     gradientUnits="userSpaceOnUse">
    <stop
       offset="0"
       stop-color="#B8B8B8"
       stop-opacity=".498"
       id="stop16" />
    <stop
       offset="1"
       stop-color="#7F7F7F"
       stop-opacity="0"
       id="stop18" />
  </radialGradient>
</svg>
